<mxfile host="Electron" agent="Mozilla/5.0 (Windows NT 10.0; Win64; x64) AppleWebKit/537.36 (KHTML, like Gecko) draw.io/28.0.6 Chrome/138.0.7204.100 Electron/37.2.3 Safari/537.36" version="28.0.6">
  <diagram name="Page-1" id="ipTBL6zYeQ7dOaKSnV9b">
    <mxGraphModel dx="1126" dy="745" grid="1" gridSize="10" guides="1" tooltips="1" connect="1" arrows="1" fold="1" page="1" pageScale="1" pageWidth="1100" pageHeight="850" math="0" shadow="0">
      <root>
        <mxCell id="0" />
        <mxCell id="1" parent="0" />
        <mxCell id="VT5ELHJvCNtQ0dC6MuxD-22" value="" style="rounded=0;whiteSpace=wrap;html=1;dashed=1;dashPattern=12 12;" vertex="1" parent="1">
          <mxGeometry x="250" y="140" width="580" height="490" as="geometry" />
        </mxCell>
        <mxCell id="A5N2KGsoCs6YVnIseVir-1" value="&lt;b&gt;&lt;font style=&quot;font-size: 14px;&quot;&gt;Mini CPU Architecture&lt;/font&gt;&lt;/b&gt;" style="text;html=1;align=center;verticalAlign=middle;whiteSpace=wrap;rounded=0;" parent="1" vertex="1">
          <mxGeometry x="430" y="100" width="270" height="30" as="geometry" />
        </mxCell>
        <mxCell id="A5N2KGsoCs6YVnIseVir-2" value="" style="rounded=0;whiteSpace=wrap;html=1;fillColor=#CC99FF;" parent="1" vertex="1">
          <mxGeometry x="280" y="290" width="80" height="80" as="geometry" />
        </mxCell>
        <mxCell id="A5N2KGsoCs6YVnIseVir-3" value="&lt;b&gt;&lt;font style=&quot;font-size: 13px;&quot;&gt;Inst&lt;/font&gt;&lt;/b&gt;&lt;div&gt;&lt;span style=&quot;font-size: 13px;&quot;&gt;&lt;b&gt;&lt;br&gt;&lt;/b&gt;&lt;/span&gt;&lt;div&gt;&lt;b&gt;&lt;font style=&quot;font-size: 13px;&quot;&gt;Fetch&lt;/font&gt;&lt;/b&gt;&lt;/div&gt;&lt;/div&gt;" style="text;html=1;align=center;verticalAlign=middle;whiteSpace=wrap;rounded=0;" parent="1" vertex="1">
          <mxGeometry x="290" y="315" width="60" height="30" as="geometry" />
        </mxCell>
        <mxCell id="A5N2KGsoCs6YVnIseVir-4" value="" style="rounded=0;whiteSpace=wrap;html=1;dashed=1;" parent="1" vertex="1">
          <mxGeometry x="120" y="290" width="80" height="160" as="geometry" />
        </mxCell>
        <mxCell id="A5N2KGsoCs6YVnIseVir-5" value="&lt;b&gt;Instruction&lt;/b&gt;&lt;div&gt;&lt;br&gt;&lt;div&gt;&lt;b&gt;Memory&lt;/b&gt;&lt;/div&gt;&lt;/div&gt;" style="text;html=1;align=center;verticalAlign=middle;whiteSpace=wrap;rounded=0;" parent="1" vertex="1">
          <mxGeometry x="130" y="360" width="60" height="20" as="geometry" />
        </mxCell>
        <mxCell id="A5N2KGsoCs6YVnIseVir-6" value="0x00" style="text;html=1;align=right;verticalAlign=middle;whiteSpace=wrap;rounded=0;" parent="1" vertex="1">
          <mxGeometry x="50" y="420" width="60" height="30" as="geometry" />
        </mxCell>
        <mxCell id="A5N2KGsoCs6YVnIseVir-7" value="0xFF" style="text;html=1;align=right;verticalAlign=middle;whiteSpace=wrap;rounded=0;" parent="1" vertex="1">
          <mxGeometry x="50" y="290" width="60" height="30" as="geometry" />
        </mxCell>
        <mxCell id="A5N2KGsoCs6YVnIseVir-8" value="" style="rounded=0;whiteSpace=wrap;html=1;dashed=1;" parent="1" vertex="1">
          <mxGeometry x="880" y="230" width="80" height="160" as="geometry" />
        </mxCell>
        <mxCell id="A5N2KGsoCs6YVnIseVir-9" value="&lt;b&gt;Data&lt;/b&gt;&lt;div&gt;&lt;b&gt;&lt;br&gt;&lt;/b&gt;&lt;/div&gt;&lt;div&gt;&lt;b&gt;Memory&lt;/b&gt;&lt;/div&gt;" style="text;html=1;align=center;verticalAlign=middle;whiteSpace=wrap;rounded=0;" parent="1" vertex="1">
          <mxGeometry x="890" y="300" width="60" height="20" as="geometry" />
        </mxCell>
        <mxCell id="A5N2KGsoCs6YVnIseVir-10" value="0x00" style="text;html=1;align=left;verticalAlign=middle;whiteSpace=wrap;rounded=0;" parent="1" vertex="1">
          <mxGeometry x="970" y="360" width="60" height="30" as="geometry" />
        </mxCell>
        <mxCell id="A5N2KGsoCs6YVnIseVir-11" value="0xFF" style="text;html=1;align=left;verticalAlign=middle;whiteSpace=wrap;rounded=0;" parent="1" vertex="1">
          <mxGeometry x="970" y="230" width="60" height="30" as="geometry" />
        </mxCell>
        <mxCell id="A5N2KGsoCs6YVnIseVir-16" value="Output" style="text;html=1;align=center;verticalAlign=middle;whiteSpace=wrap;rounded=0;" parent="1" vertex="1">
          <mxGeometry x="880" y="525" width="60" height="30" as="geometry" />
        </mxCell>
        <mxCell id="A5N2KGsoCs6YVnIseVir-17" value="Input" style="text;html=1;align=center;verticalAlign=middle;whiteSpace=wrap;rounded=0;" parent="1" vertex="1">
          <mxGeometry x="880" y="445" width="60" height="30" as="geometry" />
        </mxCell>
        <mxCell id="26gTzheDd3Vm-kqBzo7M-1" value="" style="rounded=0;whiteSpace=wrap;html=1;fillColor=#CC99FF;" parent="1" vertex="1">
          <mxGeometry x="280" y="390" width="80" height="80" as="geometry" />
        </mxCell>
        <mxCell id="26gTzheDd3Vm-kqBzo7M-2" value="&lt;b&gt;&lt;font style=&quot;font-size: 13px;&quot;&gt;Inst&lt;/font&gt;&lt;/b&gt;&lt;div&gt;&lt;span style=&quot;font-size: 13px;&quot;&gt;&lt;b&gt;&lt;br&gt;&lt;/b&gt;&lt;/span&gt;&lt;div&gt;&lt;b&gt;&lt;font style=&quot;font-size: 13px;&quot;&gt;Decode&lt;/font&gt;&lt;/b&gt;&lt;/div&gt;&lt;/div&gt;" style="text;html=1;align=center;verticalAlign=middle;whiteSpace=wrap;rounded=0;" parent="1" vertex="1">
          <mxGeometry x="290" y="415" width="60" height="30" as="geometry" />
        </mxCell>
        <mxCell id="26gTzheDd3Vm-kqBzo7M-3" value="" style="rounded=0;whiteSpace=wrap;html=1;fillColor=#CC99FF;" parent="1" vertex="1">
          <mxGeometry x="720" y="230" width="80" height="80" as="geometry" />
        </mxCell>
        <mxCell id="26gTzheDd3Vm-kqBzo7M-4" value="&lt;b&gt;Data&lt;/b&gt;&lt;div&gt;&lt;b&gt;&lt;br&gt;&lt;/b&gt;&lt;div&gt;&lt;b&gt;Fetch&lt;/b&gt;&lt;/div&gt;&lt;/div&gt;" style="text;html=1;align=center;verticalAlign=middle;whiteSpace=wrap;rounded=0;" parent="1" vertex="1">
          <mxGeometry x="730" y="255" width="60" height="30" as="geometry" />
        </mxCell>
        <mxCell id="26gTzheDd3Vm-kqBzo7M-5" value="" style="rounded=0;whiteSpace=wrap;html=1;fillColor=#99FFFF;" parent="1" vertex="1">
          <mxGeometry x="290" y="215" width="60" height="40" as="geometry" />
        </mxCell>
        <mxCell id="26gTzheDd3Vm-kqBzo7M-6" value="&lt;b&gt;PC&lt;/b&gt;" style="text;html=1;align=center;verticalAlign=middle;whiteSpace=wrap;rounded=0;" parent="1" vertex="1">
          <mxGeometry x="290" y="220" width="60" height="30" as="geometry" />
        </mxCell>
        <mxCell id="26gTzheDd3Vm-kqBzo7M-7" value="" style="rounded=0;whiteSpace=wrap;html=1;fillColor=#99FFFF;" parent="1" vertex="1">
          <mxGeometry x="570" y="560" width="60" height="40" as="geometry" />
        </mxCell>
        <mxCell id="26gTzheDd3Vm-kqBzo7M-8" value="&lt;b&gt;AC&lt;/b&gt;" style="text;html=1;align=center;verticalAlign=middle;whiteSpace=wrap;rounded=0;" parent="1" vertex="1">
          <mxGeometry x="570" y="565" width="60" height="30" as="geometry" />
        </mxCell>
        <mxCell id="26gTzheDd3Vm-kqBzo7M-9" value="" style="rounded=0;whiteSpace=wrap;html=1;fillColor=#CC99FF;" parent="1" vertex="1">
          <mxGeometry x="440" y="480" width="80" height="120" as="geometry" />
        </mxCell>
        <mxCell id="26gTzheDd3Vm-kqBzo7M-10" value="&lt;b&gt;ALU&lt;/b&gt;" style="text;html=1;align=center;verticalAlign=middle;whiteSpace=wrap;rounded=0;" parent="1" vertex="1">
          <mxGeometry x="450" y="525" width="60" height="30" as="geometry" />
        </mxCell>
        <mxCell id="26gTzheDd3Vm-kqBzo7M-11" value="" style="endArrow=classic;html=1;rounded=0;strokeWidth=2;fillColor=#008a00;strokeColor=#005700;exitX=0;exitY=0.25;exitDx=0;exitDy=0;" parent="1" edge="1" source="A5N2KGsoCs6YVnIseVir-2">
          <mxGeometry width="50" height="50" relative="1" as="geometry">
            <mxPoint x="280" y="330" as="sourcePoint" />
            <mxPoint x="200" y="310" as="targetPoint" />
          </mxGeometry>
        </mxCell>
        <mxCell id="26gTzheDd3Vm-kqBzo7M-12" value="" style="endArrow=classic;html=1;rounded=0;entryX=0;entryY=0.5;entryDx=0;entryDy=0;strokeWidth=2;fillColor=#e51400;strokeColor=#B20000;" parent="1" target="26gTzheDd3Vm-kqBzo7M-1" edge="1">
          <mxGeometry width="50" height="50" relative="1" as="geometry">
            <mxPoint x="200" y="430" as="sourcePoint" />
            <mxPoint x="250" y="380" as="targetPoint" />
          </mxGeometry>
        </mxCell>
        <mxCell id="26gTzheDd3Vm-kqBzo7M-13" value="" style="endArrow=classic;html=1;rounded=0;entryX=0.5;entryY=0;entryDx=0;entryDy=0;strokeWidth=2;fillColor=#008a00;strokeColor=#005700;exitX=0.5;exitY=1;exitDx=0;exitDy=0;" parent="1" target="A5N2KGsoCs6YVnIseVir-2" edge="1" source="26gTzheDd3Vm-kqBzo7M-5">
          <mxGeometry width="50" height="50" relative="1" as="geometry">
            <mxPoint x="320" y="260" as="sourcePoint" />
            <mxPoint x="360" y="310" as="targetPoint" />
          </mxGeometry>
        </mxCell>
        <mxCell id="26gTzheDd3Vm-kqBzo7M-14" value="" style="endArrow=classic;html=1;rounded=0;strokeWidth=2;fillColor=#008a00;strokeColor=#005700;exitX=1;exitY=0.25;exitDx=0;exitDy=0;" parent="1" edge="1" source="26gTzheDd3Vm-kqBzo7M-3">
          <mxGeometry width="50" height="50" relative="1" as="geometry">
            <mxPoint x="800" y="270" as="sourcePoint" />
            <mxPoint x="879" y="250" as="targetPoint" />
          </mxGeometry>
        </mxCell>
        <mxCell id="26gTzheDd3Vm-kqBzo7M-15" value="" style="rounded=0;whiteSpace=wrap;html=1;fillColor=#99FFFF;" parent="1" vertex="1">
          <mxGeometry x="570" y="220" width="60" height="30" as="geometry" />
        </mxCell>
        <mxCell id="26gTzheDd3Vm-kqBzo7M-16" value="&lt;b&gt;R0&lt;/b&gt;" style="text;html=1;align=center;verticalAlign=middle;whiteSpace=wrap;rounded=0;" parent="1" vertex="1">
          <mxGeometry x="570" y="220" width="60" height="30" as="geometry" />
        </mxCell>
        <mxCell id="26gTzheDd3Vm-kqBzo7M-17" value="" style="rounded=0;whiteSpace=wrap;html=1;fillColor=#99FFFF;" parent="1" vertex="1">
          <mxGeometry x="570" y="250" width="60" height="30" as="geometry" />
        </mxCell>
        <mxCell id="26gTzheDd3Vm-kqBzo7M-18" value="&lt;b&gt;R1&lt;/b&gt;" style="text;html=1;align=center;verticalAlign=middle;whiteSpace=wrap;rounded=0;" parent="1" vertex="1">
          <mxGeometry x="570" y="250" width="60" height="30" as="geometry" />
        </mxCell>
        <mxCell id="26gTzheDd3Vm-kqBzo7M-19" value="" style="rounded=0;whiteSpace=wrap;html=1;fillColor=#99FFFF;" parent="1" vertex="1">
          <mxGeometry x="570" y="280" width="60" height="30" as="geometry" />
        </mxCell>
        <mxCell id="26gTzheDd3Vm-kqBzo7M-20" value="&lt;b&gt;. . .&lt;/b&gt;" style="text;html=1;align=center;verticalAlign=middle;whiteSpace=wrap;rounded=0;" parent="1" vertex="1">
          <mxGeometry x="570" y="280" width="60" height="30" as="geometry" />
        </mxCell>
        <mxCell id="26gTzheDd3Vm-kqBzo7M-21" value="" style="rounded=0;whiteSpace=wrap;html=1;fillColor=#99FFFF;" parent="1" vertex="1">
          <mxGeometry x="570" y="310" width="60" height="30" as="geometry" />
        </mxCell>
        <mxCell id="26gTzheDd3Vm-kqBzo7M-22" value="&lt;b&gt;R14&lt;/b&gt;" style="text;html=1;align=center;verticalAlign=middle;whiteSpace=wrap;rounded=0;" parent="1" vertex="1">
          <mxGeometry x="570" y="310" width="60" height="30" as="geometry" />
        </mxCell>
        <mxCell id="26gTzheDd3Vm-kqBzo7M-23" value="" style="rounded=0;whiteSpace=wrap;html=1;fillColor=#99FFFF;" parent="1" vertex="1">
          <mxGeometry x="570" y="340" width="60" height="30" as="geometry" />
        </mxCell>
        <mxCell id="26gTzheDd3Vm-kqBzo7M-24" value="&lt;b&gt;R15&lt;/b&gt;" style="text;html=1;align=center;verticalAlign=middle;whiteSpace=wrap;rounded=0;" parent="1" vertex="1">
          <mxGeometry x="570" y="340" width="60" height="30" as="geometry" />
        </mxCell>
        <mxCell id="26gTzheDd3Vm-kqBzo7M-27" value="GenRegs" style="text;html=1;align=center;verticalAlign=middle;whiteSpace=wrap;rounded=0;" parent="1" vertex="1">
          <mxGeometry x="570" y="190" width="60" height="30" as="geometry" />
        </mxCell>
        <mxCell id="26gTzheDd3Vm-kqBzo7M-28" value="" style="rounded=0;whiteSpace=wrap;html=1;fillColor=#CC99FF;" parent="1" vertex="1">
          <mxGeometry x="280" y="520" width="80" height="80" as="geometry" />
        </mxCell>
        <mxCell id="26gTzheDd3Vm-kqBzo7M-29" value="&lt;b&gt;Control&lt;/b&gt;" style="text;html=1;align=center;verticalAlign=middle;whiteSpace=wrap;rounded=0;" parent="1" vertex="1">
          <mxGeometry x="290" y="545" width="60" height="30" as="geometry" />
        </mxCell>
        <mxCell id="26gTzheDd3Vm-kqBzo7M-32" value="" style="endArrow=none;html=1;rounded=0;strokeWidth=2;fillColor=#e51400;strokeColor=#B20000;" parent="1" edge="1">
          <mxGeometry width="50" height="50" relative="1" as="geometry">
            <mxPoint x="400" y="460" as="sourcePoint" />
            <mxPoint x="400" y="220" as="targetPoint" />
          </mxGeometry>
        </mxCell>
        <mxCell id="26gTzheDd3Vm-kqBzo7M-33" value="" style="endArrow=classic;html=1;rounded=0;strokeWidth=2;fillColor=#e51400;strokeColor=#B20000;" parent="1" edge="1">
          <mxGeometry width="50" height="50" relative="1" as="geometry">
            <mxPoint x="360" y="430" as="sourcePoint" />
            <mxPoint x="400" y="430" as="targetPoint" />
          </mxGeometry>
        </mxCell>
        <mxCell id="26gTzheDd3Vm-kqBzo7M-34" value="" style="endArrow=classic;html=1;rounded=0;entryX=1;entryY=0.5;entryDx=0;entryDy=0;strokeWidth=2;fillColor=#e51400;strokeColor=#B20000;" parent="1" edge="1">
          <mxGeometry width="50" height="50" relative="1" as="geometry">
            <mxPoint x="400" y="230" as="sourcePoint" />
            <mxPoint x="350" y="230" as="targetPoint" />
          </mxGeometry>
        </mxCell>
        <mxCell id="26gTzheDd3Vm-kqBzo7M-35" value="" style="endArrow=classic;html=1;rounded=0;" parent="1" edge="1">
          <mxGeometry width="50" height="50" relative="1" as="geometry">
            <mxPoint x="320" y="470" as="sourcePoint" />
            <mxPoint x="320" y="520" as="targetPoint" />
          </mxGeometry>
        </mxCell>
        <mxCell id="26gTzheDd3Vm-kqBzo7M-36" value="" style="endArrow=none;html=1;rounded=0;strokeWidth=2;fillColor=#e51400;strokeColor=#B20000;" parent="1" edge="1">
          <mxGeometry width="50" height="50" relative="1" as="geometry">
            <mxPoint x="680" y="600" as="sourcePoint" />
            <mxPoint x="680" y="310" as="targetPoint" />
          </mxGeometry>
        </mxCell>
        <mxCell id="26gTzheDd3Vm-kqBzo7M-37" value="" style="endArrow=classic;html=1;rounded=0;strokeWidth=2;" parent="1" edge="1">
          <mxGeometry width="50" height="50" relative="1" as="geometry">
            <mxPoint x="400" y="400" as="sourcePoint" />
            <mxPoint x="680" y="400" as="targetPoint" />
          </mxGeometry>
        </mxCell>
        <mxCell id="26gTzheDd3Vm-kqBzo7M-38" value="" style="endArrow=classic;startArrow=classic;html=1;rounded=0;entryX=0;entryY=0.777;entryDx=0;entryDy=0;entryPerimeter=0;strokeWidth=2;fillColor=#e51400;strokeColor=#B20000;" parent="1" edge="1">
          <mxGeometry width="50" height="50" relative="1" as="geometry">
            <mxPoint x="680" y="370" as="sourcePoint" />
            <mxPoint x="880" y="368.78" as="targetPoint" />
          </mxGeometry>
        </mxCell>
        <mxCell id="26gTzheDd3Vm-kqBzo7M-39" value="" style="endArrow=classic;startArrow=classic;html=1;rounded=0;strokeWidth=2;fillColor=#e51400;strokeColor=#B20000;" parent="1" edge="1">
          <mxGeometry width="50" height="50" relative="1" as="geometry">
            <mxPoint x="630" y="329.52" as="sourcePoint" />
            <mxPoint x="680" y="329.52" as="targetPoint" />
          </mxGeometry>
        </mxCell>
        <mxCell id="26gTzheDd3Vm-kqBzo7M-40" value="" style="endArrow=classic;startArrow=classic;html=1;rounded=0;strokeWidth=2;fillColor=#e51400;strokeColor=#B20000;" parent="1" edge="1">
          <mxGeometry width="50" height="50" relative="1" as="geometry">
            <mxPoint x="630" y="579.71" as="sourcePoint" />
            <mxPoint x="680" y="579.71" as="targetPoint" />
          </mxGeometry>
        </mxCell>
        <mxCell id="26gTzheDd3Vm-kqBzo7M-41" value="" style="endArrow=classic;html=1;rounded=0;strokeWidth=2;fillColor=#e51400;strokeColor=#B20000;" parent="1" edge="1">
          <mxGeometry width="50" height="50" relative="1" as="geometry">
            <mxPoint x="570" y="579.71" as="sourcePoint" />
            <mxPoint x="520" y="580" as="targetPoint" />
          </mxGeometry>
        </mxCell>
        <mxCell id="26gTzheDd3Vm-kqBzo7M-42" value="" style="endArrow=none;html=1;rounded=0;strokeWidth=2;fillColor=#e51400;strokeColor=#B20000;" parent="1" edge="1">
          <mxGeometry width="50" height="50" relative="1" as="geometry">
            <mxPoint x="520" y="540" as="sourcePoint" />
            <mxPoint x="600" y="540" as="targetPoint" />
          </mxGeometry>
        </mxCell>
        <mxCell id="26gTzheDd3Vm-kqBzo7M-43" value="" style="endArrow=classic;html=1;rounded=0;entryX=0.5;entryY=0;entryDx=0;entryDy=0;strokeWidth=2;fillColor=#e51400;strokeColor=#B20000;" parent="1" target="26gTzheDd3Vm-kqBzo7M-7" edge="1">
          <mxGeometry width="50" height="50" relative="1" as="geometry">
            <mxPoint x="600" y="540" as="sourcePoint" />
            <mxPoint x="620" y="565" as="targetPoint" />
          </mxGeometry>
        </mxCell>
        <mxCell id="26gTzheDd3Vm-kqBzo7M-44" value="" style="endArrow=classic;html=1;rounded=0;entryX=1.013;entryY=0.169;entryDx=0;entryDy=0;entryPerimeter=0;strokeWidth=2;fillColor=#e51400;strokeColor=#B20000;" parent="1" target="26gTzheDd3Vm-kqBzo7M-9" edge="1">
          <mxGeometry width="50" height="50" relative="1" as="geometry">
            <mxPoint x="680" y="500" as="sourcePoint" />
            <mxPoint x="620" y="440" as="targetPoint" />
          </mxGeometry>
        </mxCell>
        <mxCell id="26gTzheDd3Vm-kqBzo7M-45" value="" style="endArrow=classic;html=1;rounded=0;entryX=-0.016;entryY=0.669;entryDx=0;entryDy=0;entryPerimeter=0;" parent="1" target="26gTzheDd3Vm-kqBzo7M-9" edge="1">
          <mxGeometry width="50" height="50" relative="1" as="geometry">
            <mxPoint x="360" y="560" as="sourcePoint" />
            <mxPoint x="410" y="510" as="targetPoint" />
          </mxGeometry>
        </mxCell>
        <mxCell id="26gTzheDd3Vm-kqBzo7M-46" value="" style="rounded=0;whiteSpace=wrap;html=1;fillColor=#99FFFF;" parent="1" vertex="1">
          <mxGeometry x="740" y="520" width="60" height="40" as="geometry" />
        </mxCell>
        <mxCell id="26gTzheDd3Vm-kqBzo7M-47" value="&lt;b&gt;OutPort&lt;/b&gt;" style="text;html=1;align=center;verticalAlign=middle;whiteSpace=wrap;rounded=0;" parent="1" vertex="1">
          <mxGeometry x="740" y="525" width="60" height="30" as="geometry" />
        </mxCell>
        <mxCell id="26gTzheDd3Vm-kqBzo7M-48" value="" style="rounded=0;whiteSpace=wrap;html=1;fillColor=#99FFFF;" parent="1" vertex="1">
          <mxGeometry x="740" y="440" width="60" height="40" as="geometry" />
        </mxCell>
        <mxCell id="26gTzheDd3Vm-kqBzo7M-49" value="&lt;b&gt;InPort&lt;/b&gt;" style="text;html=1;align=center;verticalAlign=middle;whiteSpace=wrap;rounded=0;" parent="1" vertex="1">
          <mxGeometry x="740" y="445" width="60" height="30" as="geometry" />
        </mxCell>
        <mxCell id="26gTzheDd3Vm-kqBzo7M-50" value="" style="endArrow=classic;html=1;rounded=0;entryX=0;entryY=0.5;entryDx=0;entryDy=0;" parent="1" target="26gTzheDd3Vm-kqBzo7M-47" edge="1">
          <mxGeometry width="50" height="50" relative="1" as="geometry">
            <mxPoint x="680" y="540" as="sourcePoint" />
            <mxPoint x="730" y="495" as="targetPoint" />
          </mxGeometry>
        </mxCell>
        <mxCell id="26gTzheDd3Vm-kqBzo7M-51" value="" style="endArrow=classic;html=1;rounded=0;" parent="1" edge="1">
          <mxGeometry width="50" height="50" relative="1" as="geometry">
            <mxPoint x="740" y="460" as="sourcePoint" />
            <mxPoint x="680" y="460" as="targetPoint" />
          </mxGeometry>
        </mxCell>
        <mxCell id="26gTzheDd3Vm-kqBzo7M-52" value="" style="endArrow=classic;html=1;rounded=0;" parent="1" edge="1">
          <mxGeometry width="50" height="50" relative="1" as="geometry">
            <mxPoint x="800" y="540" as="sourcePoint" />
            <mxPoint x="880" y="540" as="targetPoint" />
          </mxGeometry>
        </mxCell>
        <mxCell id="26gTzheDd3Vm-kqBzo7M-53" value="" style="endArrow=classic;html=1;rounded=0;" parent="1" edge="1">
          <mxGeometry width="50" height="50" relative="1" as="geometry">
            <mxPoint x="880" y="460" as="sourcePoint" />
            <mxPoint x="800" y="460" as="targetPoint" />
          </mxGeometry>
        </mxCell>
        <mxCell id="26gTzheDd3Vm-kqBzo7M-54" value="" style="endArrow=classic;html=1;rounded=0;entryX=0;entryY=0.5;entryDx=0;entryDy=0;fillColor=#008a00;strokeColor=#005700;strokeWidth=2;" parent="1" target="26gTzheDd3Vm-kqBzo7M-3" edge="1">
          <mxGeometry width="50" height="50" relative="1" as="geometry">
            <mxPoint x="630" y="270" as="sourcePoint" />
            <mxPoint x="730" y="220" as="targetPoint" />
          </mxGeometry>
        </mxCell>
        <mxCell id="VT5ELHJvCNtQ0dC6MuxD-5" value="" style="rounded=0;whiteSpace=wrap;html=1;fillColor=#CC99FF;" vertex="1" parent="1">
          <mxGeometry x="480" y="280" width="60" height="30" as="geometry" />
        </mxCell>
        <mxCell id="VT5ELHJvCNtQ0dC6MuxD-6" value="&lt;b&gt;Incr&lt;/b&gt;" style="text;html=1;align=center;verticalAlign=middle;whiteSpace=wrap;rounded=0;" vertex="1" parent="1">
          <mxGeometry x="480" y="280" width="60" height="30" as="geometry" />
        </mxCell>
        <mxCell id="VT5ELHJvCNtQ0dC6MuxD-7" value="" style="rounded=0;whiteSpace=wrap;html=1;fillColor=#CC99FF;" vertex="1" parent="1">
          <mxGeometry x="420" y="170" width="60" height="30" as="geometry" />
        </mxCell>
        <mxCell id="VT5ELHJvCNtQ0dC6MuxD-8" value="&lt;b&gt;Incr&lt;/b&gt;" style="text;html=1;align=center;verticalAlign=middle;whiteSpace=wrap;rounded=0;" vertex="1" parent="1">
          <mxGeometry x="420" y="170" width="60" height="30" as="geometry" />
        </mxCell>
        <mxCell id="VT5ELHJvCNtQ0dC6MuxD-10" value="" style="endArrow=none;html=1;rounded=0;" edge="1" parent="1">
          <mxGeometry width="50" height="50" relative="1" as="geometry">
            <mxPoint x="320" y="215" as="sourcePoint" />
            <mxPoint x="320" y="180" as="targetPoint" />
          </mxGeometry>
        </mxCell>
        <mxCell id="VT5ELHJvCNtQ0dC6MuxD-11" value="" style="endArrow=classic;html=1;rounded=0;entryX=0;entryY=0.333;entryDx=0;entryDy=0;entryPerimeter=0;" edge="1" parent="1" target="VT5ELHJvCNtQ0dC6MuxD-8">
          <mxGeometry width="50" height="50" relative="1" as="geometry">
            <mxPoint x="320" y="180" as="sourcePoint" />
            <mxPoint x="370" y="130" as="targetPoint" />
          </mxGeometry>
        </mxCell>
        <mxCell id="VT5ELHJvCNtQ0dC6MuxD-12" value="" style="endArrow=none;html=1;rounded=0;" edge="1" parent="1">
          <mxGeometry width="50" height="50" relative="1" as="geometry">
            <mxPoint x="450" y="230" as="sourcePoint" />
            <mxPoint x="450" y="200" as="targetPoint" />
          </mxGeometry>
        </mxCell>
        <mxCell id="VT5ELHJvCNtQ0dC6MuxD-13" value="" style="endArrow=classic;html=1;rounded=0;" edge="1" parent="1">
          <mxGeometry width="50" height="50" relative="1" as="geometry">
            <mxPoint x="450" y="230" as="sourcePoint" />
            <mxPoint x="400" y="230" as="targetPoint" />
          </mxGeometry>
        </mxCell>
        <mxCell id="VT5ELHJvCNtQ0dC6MuxD-14" value="" style="endArrow=none;html=1;rounded=0;" edge="1" parent="1">
          <mxGeometry width="50" height="50" relative="1" as="geometry">
            <mxPoint x="510" y="350" as="sourcePoint" />
            <mxPoint x="570" y="350" as="targetPoint" />
          </mxGeometry>
        </mxCell>
        <mxCell id="VT5ELHJvCNtQ0dC6MuxD-15" value="" style="endArrow=classic;html=1;rounded=0;entryX=0.5;entryY=1;entryDx=0;entryDy=0;" edge="1" parent="1" target="VT5ELHJvCNtQ0dC6MuxD-6">
          <mxGeometry width="50" height="50" relative="1" as="geometry">
            <mxPoint x="510" y="350" as="sourcePoint" />
            <mxPoint x="560" y="300" as="targetPoint" />
          </mxGeometry>
        </mxCell>
        <mxCell id="VT5ELHJvCNtQ0dC6MuxD-16" value="" style="endArrow=none;html=1;rounded=0;" edge="1" parent="1">
          <mxGeometry width="50" height="50" relative="1" as="geometry">
            <mxPoint x="510" y="280" as="sourcePoint" />
            <mxPoint x="510" y="240" as="targetPoint" />
          </mxGeometry>
        </mxCell>
        <mxCell id="VT5ELHJvCNtQ0dC6MuxD-17" value="" style="endArrow=classic;html=1;rounded=0;" edge="1" parent="1">
          <mxGeometry width="50" height="50" relative="1" as="geometry">
            <mxPoint x="510" y="240" as="sourcePoint" />
            <mxPoint x="570" y="239" as="targetPoint" />
          </mxGeometry>
        </mxCell>
        <mxCell id="VT5ELHJvCNtQ0dC6MuxD-19" value="ID" style="text;html=1;align=center;verticalAlign=middle;whiteSpace=wrap;rounded=0;" vertex="1" parent="1">
          <mxGeometry x="200" y="400" width="60" height="30" as="geometry" />
        </mxCell>
        <mxCell id="VT5ELHJvCNtQ0dC6MuxD-20" value="DA" style="text;html=1;align=center;verticalAlign=middle;whiteSpace=wrap;rounded=0;" vertex="1" parent="1">
          <mxGeometry x="820" y="220" width="60" height="30" as="geometry" />
        </mxCell>
        <mxCell id="VT5ELHJvCNtQ0dC6MuxD-21" value="DD" style="text;html=1;align=center;verticalAlign=middle;whiteSpace=wrap;rounded=0;" vertex="1" parent="1">
          <mxGeometry x="820" y="340" width="60" height="30" as="geometry" />
        </mxCell>
        <mxCell id="VT5ELHJvCNtQ0dC6MuxD-23" value="" style="endArrow=classic;html=1;rounded=0;entryX=0;entryY=0.25;entryDx=0;entryDy=0;" edge="1" parent="1" target="26gTzheDd3Vm-kqBzo7M-28">
          <mxGeometry width="50" height="50" relative="1" as="geometry">
            <mxPoint x="200" y="540" as="sourcePoint" />
            <mxPoint x="220" y="545" as="targetPoint" />
          </mxGeometry>
        </mxCell>
        <mxCell id="VT5ELHJvCNtQ0dC6MuxD-24" value="" style="endArrow=classic;html=1;rounded=0;entryX=0;entryY=0.75;entryDx=0;entryDy=0;" edge="1" parent="1" target="26gTzheDd3Vm-kqBzo7M-28">
          <mxGeometry width="50" height="50" relative="1" as="geometry">
            <mxPoint x="200" y="580" as="sourcePoint" />
            <mxPoint x="230" y="580" as="targetPoint" />
          </mxGeometry>
        </mxCell>
        <mxCell id="VT5ELHJvCNtQ0dC6MuxD-25" value="Clock" style="text;html=1;align=center;verticalAlign=middle;whiteSpace=wrap;rounded=0;" vertex="1" parent="1">
          <mxGeometry x="140" y="525" width="60" height="30" as="geometry" />
        </mxCell>
        <mxCell id="VT5ELHJvCNtQ0dC6MuxD-26" value="Reset" style="text;html=1;align=center;verticalAlign=middle;whiteSpace=wrap;rounded=0;" vertex="1" parent="1">
          <mxGeometry x="140" y="565" width="60" height="30" as="geometry" />
        </mxCell>
        <mxCell id="VT5ELHJvCNtQ0dC6MuxD-27" value="" style="endArrow=classic;html=1;rounded=0;entryX=0.998;entryY=0.375;entryDx=0;entryDy=0;entryPerimeter=0;" edge="1" parent="1" target="A5N2KGsoCs6YVnIseVir-4">
          <mxGeometry width="50" height="50" relative="1" as="geometry">
            <mxPoint x="280" y="350" as="sourcePoint" />
            <mxPoint x="230" y="345" as="targetPoint" />
          </mxGeometry>
        </mxCell>
        <mxCell id="VT5ELHJvCNtQ0dC6MuxD-28" value="IA" style="text;html=1;align=center;verticalAlign=middle;whiteSpace=wrap;rounded=0;" vertex="1" parent="1">
          <mxGeometry x="200" y="280" width="60" height="30" as="geometry" />
        </mxCell>
        <mxCell id="VT5ELHJvCNtQ0dC6MuxD-29" value="IC" style="text;html=1;align=center;verticalAlign=middle;whiteSpace=wrap;rounded=0;" vertex="1" parent="1">
          <mxGeometry x="200" y="320" width="60" height="30" as="geometry" />
        </mxCell>
        <mxCell id="VT5ELHJvCNtQ0dC6MuxD-30" value="" style="endArrow=classic;html=1;rounded=0;exitX=1;exitY=0.75;exitDx=0;exitDy=0;entryX=0;entryY=0.375;entryDx=0;entryDy=0;entryPerimeter=0;" edge="1" parent="1" source="26gTzheDd3Vm-kqBzo7M-3" target="A5N2KGsoCs6YVnIseVir-8">
          <mxGeometry width="50" height="50" relative="1" as="geometry">
            <mxPoint x="810" y="350" as="sourcePoint" />
            <mxPoint x="860" y="300" as="targetPoint" />
          </mxGeometry>
        </mxCell>
        <mxCell id="VT5ELHJvCNtQ0dC6MuxD-31" value="DC" style="text;html=1;align=center;verticalAlign=middle;whiteSpace=wrap;rounded=0;" vertex="1" parent="1">
          <mxGeometry x="820" y="260" width="60" height="30" as="geometry" />
        </mxCell>
      </root>
    </mxGraphModel>
  </diagram>
</mxfile>
